<?xml version="1.0" encoding="UTF-8"?>
<!DOCTYPE svg PUBLIC "-//W3C//DTD SVG 1.1//EN" "http://www.w3.org/Graphics/SVG/1.1/DTD/svg11.dtd">
<!-- Creator: CorelDRAW X7 -->
<svg xmlns="http://www.w3.org/2000/svg" xml:space="preserve" width="100mm" height="120mm" version="1.1" style="shape-rendering:geometricPrecision; text-rendering:geometricPrecision; image-rendering:optimizeQuality; fill-rule:evenodd; clip-rule:evenodd"
viewBox="0 0 10000 12000"
 xmlns:xlink="http://www.w3.org/1999/xlink">
 <defs>
  <style type="text/css">
   <![CDATA[
    .fil5 {fill:#211915}
    .fil2 {fill:#864926}
    .fil4 {fill:#8C4F2A}
    .fil0 {fill:#9B5E34}
    .fil1 {fill:#DCC7B8}
    .fil3 {fill:#E6D7CC}
   ]]>
  </style>
 </defs>
 <g id="Слой_x0020_1">
  <metadata id="CorelCorpID_0Corel-Layer"/>
  <path class="fil0" d="M6182 2639c-35,41 -165,241 -659,323 -493,82 -1040,-82 -1270,-200 -229,-117 -229,-258 -229,-258 0,0 429,-300 682,-553 253,-253 394,-582 394,-582l53 -36c0,0 6,30 12,77 6,47 211,376 411,570 200,194 659,524 659,524 0,0 -18,94 -53,135zm3445 5080c-152,-347 -588,-865 -740,-1147 -153,-282 -177,-529 -177,-529 0,0 459,129 512,124 53,-6 17,-536 -18,-806 -35,-270 -282,-1029 -411,-1370 -130,-341 -347,-753 -406,-894 -59,-141 -106,-329 -106,-329 0,0 341,-223 406,-323 64,-100 94,-153 94,-153 0,0 -159,112 -312,70 -153,-41 -288,-94 -288,-94 0,0 6,-370 -53,-670 -59,-300 -194,-688 -229,-817 -35,-130 -200,-400 -276,-429 -77,-30 -136,64 -106,123 29,59 205,412 88,588 -118,176 -224,223 -371,253 -147,29 -199,17 -199,17 0,0 -459,-370 -812,-388 -353,-17 -600,89 -700,136 -99,47 -352,229 -352,229 0,0 -147,-300 -771,-329 -623,-30 -1146,276 -1193,305 -47,30 -129,59 -129,59 0,0 -377,12 -530,-211 -152,-224 -5,-459 6,-524 12,-64 77,-206 59,-229 -18,-24 -76,-18 -76,-18 0,0 -141,30 -241,253 -100,224 -253,794 -289,911 -35,118 -76,494 -76,494 0,0 -188,47 -370,42 -183,-6 -318,-18 -318,-18 0,0 71,300 247,441 176,141 353,247 353,247 0,0 -77,541 -77,829 0,288 42,1182 12,1540 -29,359 -70,659 -247,982 -176,324 -605,876 -782,1035 -176,159 -582,653 -558,1082 23,429 88,835 264,1023 177,188 447,406 447,406 0,0 0,-171 82,-400 83,-230 300,-535 300,-535 0,0 -6,405 118,664 123,259 353,776 658,1094 306,317 624,594 1035,699 412,106 541,118 541,118 0,0 171,76 306,123 135,48 335,136 517,130 183,-6 371,23 412,70 41,47 106,130 106,130 0,0 205,-171 535,-259 329,-88 858,-294 893,-323 36,-30 77,17 77,17l106 136c0,0 335,-236 482,-371 147,-135 282,-317 282,-317l-23 194c0,0 452,-453 587,-594 136,-141 365,-418 365,-418l-135 471c0,0 929,-477 1229,-1017 299,-541 405,-1176 252,-1523z"/>
  <path class="fil1" d="M1799 3094c-3,-1 -6,-2 -9,-3 14,-124 48,-325 52,-351l0 0c-5,33 -25,182 -43,354zm2317 -427c-28,-26 -47,-51 -61,-74 20,24 42,51 61,74z"/>
  <path class="fil2" d="M2570 3218c-259,0 -522,-38 -771,-124 18,-172 38,-321 43,-354 270,116 545,167 817,167 467,0 926,-151 1348,-386 1,9 22,39 48,72 14,23 33,48 61,74 7,9 14,17 20,25 -351,309 -948,526 -1566,526z"/>
  <path class="fil1" d="M8389 3102c-1,-1 -1,-3 -2,-5 -59,-141 -106,-329 -106,-329 0,0 63,198 108,334zm-108 -334c0,0 0,0 0,0 0,0 0,0 0,0zm0 0c0,0 0,0 0,0zm-2109 -117c-3,-2 -5,-4 -8,-6 13,-34 69,-130 70,-139l0 0c-3,15 -20,96 -52,133 -3,3 -6,7 -10,12z"/>
  <path class="fil2" d="M7824 3268c-593,0 -1232,-247 -1652,-617 4,-5 7,-9 10,-12 32,-37 49,-118 52,-133 415,241 881,382 1339,382 246,-1 489,-41 721,-128 -8,5 -13,8 -13,8 0,0 0,0 0,0 0,0 0,0 0,0 0,0 0,0 0,0l0 0c0,0 47,188 106,329 1,2 1,4 2,5 9,27 17,52 24,72 -183,64 -383,94 -589,94z"/>
  <path class="fil3" d="M7070 1336c-2,0 -4,0 -5,0 0,0 0,0 0,0 1,0 3,0 5,0 24,0 62,-3 117,-12 0,0 0,1 0,1 -55,9 -93,11 -117,11z"/>
  <path class="fil4" d="M8181 2246c-444,-113 -813,-534 -1116,-910 1,0 3,0 5,0 24,0 62,-2 117,-11 275,273 610,507 985,638 8,130 9,239 9,283z"/>
  <path class="fil3" d="M1933 2002c1,-6 2,-12 2,-19 0,7 -1,13 -2,19 0,0 0,0 0,0zm1135 -657c-31,0 -128,-2 -235,-31 1,0 1,0 1,0 106,29 204,31 234,31 0,0 1,0 1,0l0 0c0,0 -1,0 -1,0z"/>
  <path class="fil4" d="M1933 2002c1,-6 2,-12 2,-19 6,-50 17,-142 31,-233 304,-108 595,-268 867,-436 107,29 204,31 235,31 0,0 1,0 1,0 -319,290 -708,540 -1136,657z"/>
  <path class="fil5" d="M5125 1310c-221,315 -437,614 -735,861 -311,259 -670,467 -1057,586 -736,226 -1729,82 -2056,-710 -11,-27 -48,-23 -51,7 -31,331 404,600 656,724 398,198 853,214 1280,115 812,-187 1652,-788 2002,-1560 12,-26 -22,-47 -39,-23z"/>
  <path class="fil5" d="M5164 1304c-99,-237 -399,-312 -629,-337 -315,-34 -640,6 -940,105 -386,127 -724,351 -1063,570 -186,121 -379,266 -592,334 -227,73 -452,32 -684,38 -36,1 -47,60 -9,67 351,64 682,30 991,-152 338,-198 651,-436 1001,-615 524,-268 1436,-490 1900,4 9,11 31,0 25,-14z"/>
  <path class="fil5" d="M5129 1316c57,378 351,654 642,874 336,255 702,511 1104,648 363,124 794,168 1165,55 285,-87 666,-270 769,-574 14,-41 -42,-56 -64,-27 -463,609 -1236,692 -1926,432 -341,-128 -654,-347 -949,-558 -306,-219 -600,-485 -699,-862 -7,-28 -46,-16 -42,12z"/>
  <path class="fil5" d="M5163 1343c286,-228 693,-380 1061,-322 396,62 738,328 1030,586 246,217 479,460 759,634 222,139 538,274 781,107 56,-38 7,-126 -53,-92 -360,202 -785,-173 -1040,-396 -272,-236 -528,-493 -836,-682 -298,-183 -640,-304 -992,-241 -262,46 -573,170 -738,385 -13,17 13,32 28,21z"/>
  <path class="fil5" d="M6969 1346c214,23 470,23 610,-169 178,-244 39,-530 -26,-788 -10,-38 -70,-31 -69,9 8,217 159,412 85,633 -89,269 -371,254 -600,280 -22,3 -23,33 0,35z"/>
  <path class="fil5" d="M7503 407c223,-151 382,474 423,609 126,417 198,823 225,1258 3,57 88,58 88,0 1,-506 -117,-1011 -296,-1483 -49,-130 -251,-643 -453,-401 -7,9 3,24 13,17z"/>
  <path class="fil5" d="M3987 2547c96,188 314,284 504,349 224,76 469,128 706,133 349,8 1028,-115 1093,-547 6,-42 -55,-79 -76,-32 -168,377 -651,493 -1033,482 -365,-10 -918,-101 -1154,-409 -18,-23 -54,-4 -40,24z"/>
  <path class="fil5" d="M1839 2719c-148,473 -115,987 -102,1475 13,547 27,1104 -153,1628 -183,534 -539,914 -914,1318 -308,331 -534,705 -523,1171 7,280 72,592 216,836 127,216 353,372 534,541 32,30 89,-10 63,-49 -112,-174 -298,-280 -431,-436 -195,-230 -272,-598 -279,-892 -13,-534 304,-911 658,-1271 323,-331 595,-701 755,-1139 170,-464 185,-955 174,-1444 -13,-574 -69,-1159 36,-1728 4,-22 -27,-32 -34,-10z"/>
  <path class="fil5" d="M8658 6023c26,370 225,658 452,938 308,383 544,745 523,1259 -19,473 -177,964 -520,1300 -295,288 -670,468 -989,725 -30,24 9,75 42,54 347,-220 719,-421 1015,-711 322,-315 478,-744 533,-1186 57,-455 -46,-868 -319,-1237 -263,-356 -604,-674 -637,-1142 -4,-64 -104,-65 -100,0z"/>
  <path class="fil5" d="M3012 2909c-40,303 -60,608 -158,900 -96,286 -236,573 -392,832 -149,246 -332,469 -506,696 -137,178 -302,369 -374,585 -4,13 15,25 24,14 178,-220 326,-467 500,-692 168,-215 337,-432 468,-672 275,-503 500,-1079 463,-1663 -1,-16 -23,-15 -25,0z"/>
  <path class="fil5" d="M2149 5135c71,446 133,858 56,1309 -70,417 -220,818 -401,1198 -175,370 -381,725 -589,1078 -171,289 -354,577 -318,927 4,36 55,38 57,0 14,-215 49,-397 150,-589 98,-185 210,-361 314,-542 205,-354 401,-713 561,-1090 292,-691 493,-1574 193,-2297 -6,-15 -26,-10 -23,6z"/>
  <path class="fil5" d="M1281 8659c-8,669 288,1301 725,1798 213,242 467,456 754,606 141,74 289,130 445,168 161,39 349,97 516,81 17,-1 27,-25 10,-35 -127,-66 -285,-75 -424,-105 -161,-35 -315,-83 -464,-157 -283,-140 -533,-343 -746,-576 -439,-479 -753,-1124 -786,-1780 -1,-19 -30,-19 -30,0z"/>
  <path class="fil5" d="M3720 11275c-173,-86 -310,-240 -433,-385 -134,-158 -277,-324 -378,-505 -250,-451 -247,-984 -203,-1483 42,-469 120,-949 23,-1416 -59,-285 -227,-703 -498,-846 -25,-13 -45,17 -29,37 290,357 471,719 491,1186 22,516 -95,1026 -88,1542 6,424 100,854 362,1195 188,244 425,621 742,702 15,4 26,-19 11,-27z"/>
  <path class="fil5" d="M3601 11245c198,90 377,206 595,247 217,42 438,69 656,106 11,2 20,-14 8,-20 -179,-92 -407,-87 -602,-120 -232,-38 -431,-152 -648,-235 -12,-4 -21,16 -9,22z"/>
  <path class="fil5" d="M4992 11723c-280,-377 -527,-782 -738,-1201 -156,-310 -290,-640 -325,-987 -33,-329 38,-667 102,-988 118,-592 278,-1189 226,-1798 -23,-262 -87,-514 -183,-758 -84,-213 -171,-442 -320,-619 -26,-31 -69,9 -53,41 257,541 485,1031 475,1647 -11,645 -212,1266 -302,1901 -83,590 53,1111 329,1634 208,394 440,833 756,1153 16,16 47,-6 33,-25z"/>
  <path class="fil5" d="M2735 7696c220,-393 417,-807 622,-1208 201,-393 359,-797 462,-1228 100,-424 156,-863 139,-1299 -16,-425 -85,-885 -281,-1266 -24,-47 -93,-6 -70,41 195,405 259,901 263,1347 3,438 -64,877 -174,1301 -110,421 -281,812 -480,1198 -181,352 -414,714 -503,1104 -3,13 15,22 22,10z"/>
  <path class="fil5" d="M5109 2980c-62,671 -250,1281 -489,1907 -114,300 -228,601 -317,909 -77,264 -185,566 -144,843 5,39 57,23 61,-8 87,-651 308,-1248 536,-1861 211,-568 427,-1175 382,-1790 -1,-19 -27,-19 -29,0z"/>
  <path class="fil5" d="M5019 3779c13,322 91,630 179,939 95,331 182,661 255,998 154,701 219,1389 171,2106 -47,703 -117,1413 -258,2104 -67,327 -166,636 -278,951 -95,266 -199,554 -157,840 6,40 60,25 64,-8 38,-346 134,-655 251,-980 107,-296 182,-597 241,-906 128,-669 197,-1355 241,-2035 43,-680 -11,-1338 -161,-2002 -73,-326 -152,-648 -250,-967 -105,-342 -219,-684 -265,-1040 -3,-20 -34,-21 -33,0z"/>
  <path class="fil5" d="M4211 7090c-62,570 283,1138 544,1619 306,564 637,1200 477,1860 -4,15 15,28 27,16 194,-197 108,-563 54,-804 -68,-305 -200,-592 -344,-866 -149,-283 -315,-556 -452,-844 -153,-320 -229,-636 -280,-985 -3,-16 -25,-10 -26,4z"/>
  <path class="fil5" d="M8315 9676c-106,187 -269,336 -422,482 -213,205 -422,411 -610,639 21,9 43,18 65,27 10,-387 127,-755 70,-1144 -57,-399 -203,-777 -235,-1182 -29,-371 4,-754 141,-1102 97,-249 279,-554 494,-719 42,-33 1,-107 -44,-74 -192,141 -356,392 -461,602 -164,327 -228,697 -227,1060 1,408 106,785 201,1178 56,229 85,458 62,694 -22,230 -72,455 -77,687 -1,31 43,53 65,27 203,-248 431,-468 656,-695 140,-140 274,-282 344,-470 5,-13 -16,-21 -22,-10z"/>
  <path class="fil5" d="M8147 10277c69,-205 152,-409 211,-617 56,-196 69,-406 82,-609 27,-415 -89,-841 -221,-1230 -135,-398 -301,-790 -378,-1205 -76,-406 -53,-826 51,-1225 16,-59 -76,-85 -92,-25 -92,342 -125,698 -89,1051 44,426 198,826 345,1225 153,414 316,865 313,1313 -1,235 -19,491 -82,718 -55,200 -143,393 -167,600 -2,17 23,18 27,4z"/>
  <path class="fil5" d="M6591 2715c-42,609 -169,1201 -376,1775 -104,287 -224,567 -362,840 -114,227 -298,477 -313,737 -1,24 34,32 46,12 79,-142 130,-300 204,-445 63,-122 128,-242 188,-365 128,-265 242,-536 338,-814 192,-555 335,-1150 304,-1740 -1,-19 -28,-18 -29,0z"/>
  <path class="fil5" d="M7506 7008c-140,-191 -228,-403 -332,-613 -120,-240 -256,-471 -358,-720 -193,-470 -372,-985 -395,-1496 -3,-57 -92,-58 -90,0 23,522 203,1046 403,1525 98,234 226,453 345,677 121,226 213,465 393,653 17,17 48,-6 34,-26z"/>
  <path class="fil5" d="M6041 5013c6,0 6,-9 0,-9 -6,0 -6,9 0,9z"/>
  <path class="fil5" d="M6822 5908c-80,624 -282,1276 -569,1836 -129,250 -270,495 -410,739 -108,188 -291,413 -313,635 -3,32 41,38 56,15 81,-119 133,-264 205,-390 65,-112 130,-223 193,-336 145,-260 296,-517 422,-787 122,-262 204,-536 287,-812 87,-289 180,-595 154,-900 -1,-17 -23,-16 -25,0z"/>
  <path class="fil5" d="M4992 11751c267,-209 582,-260 895,-368 114,-40 227,-86 338,-133 81,-34 195,-61 242,-143 7,-13 -3,-25 -16,-27 -107,-14 -250,83 -343,122 -129,54 -258,102 -391,144 -265,83 -567,155 -752,378 -16,19 7,42 27,27z"/>
  <path class="fil5" d="M5856 8507c-20,518 82,1054 202,1556 61,255 133,507 218,756 64,186 137,374 277,517 15,14 41,19 59,7 192,-122 373,-275 528,-441 101,-107 247,-262 230,-421 -4,-37 -51,-45 -64,-9 -123,332 -453,603 -743,787 20,3 39,5 59,8 -158,-162 -225,-389 -293,-600 -77,-239 -145,-480 -203,-725 -112,-476 -159,-958 -242,-1439 -3,-17 -27,-12 -28,4z"/>
  <path class="fil5" d="M3151 1311c-231,-27 -508,-12 -600,-280 -76,-220 78,-417 85,-633 1,-39 -59,-47 -69,-9 -65,258 -204,544 -26,788 140,192 396,192 610,169 23,-2 23,-32 0,-35z"/>
  <path class="fil5" d="M2630 390c-188,-231 -384,227 -434,352 -159,400 -280,833 -314,1262 -5,59 87,59 92,0 11,-135 317,-1812 643,-1597 11,7 20,-8 13,-17z"/>
  <path class="fil5" d="M5132 1389c553,601 1659,960 2369,396 44,-35 -19,-97 -62,-62 -312,248 -750,276 -1130,218 -437,-67 -817,-290 -1115,-614 -39,-41 -100,21 -62,62z"/>
  <path class="fil5" d="M5938 2275c323,236 779,407 1171,456 233,29 474,13 700,-53 189,-55 460,-153 574,-321 12,-19 -11,-39 -29,-29 -206,113 -385,239 -618,299 -253,65 -521,66 -776,13 -342,-71 -703,-216 -1011,-384 -12,-7 -22,11 -11,19z"/>
  <path class="fil5" d="M5084 1410c-252,329 -649,535 -1058,583 -418,48 -920,-99 -1138,-488 -21,-36 -74,-4 -56,33 204,413 772,564 1194,516 424,-49 848,-264 1078,-632 9,-13 -11,-24 -20,-12z"/>
  <path class="fil5" d="M1959 2037c185,298 513,541 853,629 361,94 861,92 1176,-131 28,-20 12,-67 -23,-57 -212,58 -397,140 -620,154 -171,11 -345,-3 -511,-46 -148,-37 -287,-100 -413,-185 -165,-110 -282,-262 -433,-387 -15,-13 -41,3 -29,23z"/>
  <path class="fil5" d="M2538 361c-281,433 -315,991 -302,1492 1,18 28,18 28,0 -7,-524 43,-1013 286,-1485 4,-8 -7,-15 -12,-7z"/>
  <path class="fil5" d="M2507 1064c-36,199 -9,410 36,605 4,16 28,9 24,-6 -46,-200 -48,-393 -50,-597 0,-6 -9,-7 -10,-2z"/>
  <path class="fil5" d="M2778 1303c-26,59 -34,169 26,212 3,2 8,-1 7,-4 -2,-29 -18,-55 -24,-84 -8,-39 -5,-80 2,-119 2,-7 -8,-12 -11,-5z"/>
  <path class="fil5" d="M7336 1304c-15,42 -8,93 -14,137 -5,47 -20,91 -25,137 -1,8 11,11 15,4 22,-41 29,-92 35,-139 5,-44 14,-99 -5,-140l-6 1z"/>
  <path class="fil5" d="M7580 1083c5,234 -36,443 -76,671 -1,4 5,8 8,3 93,-200 107,-458 79,-674 -1,-7 -11,-7 -11,0z"/>
  <path class="fil5" d="M7545 387c101,254 192,504 235,774 47,292 31,574 6,867 -1,12 20,15 23,3 111,-533 12,-1173 -251,-1649 -4,-7 -16,-2 -13,5z"/>
  <path class="fil5" d="M5135 1289c-285,285 -637,407 -1036,435 -180,12 -375,23 -551,-22 -204,-53 -345,-176 -489,-322 -8,-8 -23,3 -16,13 224,362 676,391 1056,364 384,-27 802,-140 1046,-460 5,-6 -5,-13 -10,-8z"/>
  <path class="fil5" d="M5135 1290c-334,62 -650,170 -992,189 -320,17 -633,-34 -916,-189 -18,-10 -35,18 -16,28 580,325 1330,204 1927,-16 8,-2 5,-13 -3,-12z"/>
  <path class="fil5" d="M5035 1172c-442,73 -981,163 -1398,-52 -9,-4 -18,7 -11,14 133,139 402,134 579,142 279,13 567,-9 834,-91 8,-3 5,-14 -4,-13z"/>
  <path class="fil5" d="M4761 1030c-247,31 -457,13 -701,-28 -15,-3 -20,16 -6,21 217,82 487,81 709,20 7,-2 6,-14 -2,-13z"/>
  <path class="fil5" d="M5164 1328c635,429 1480,629 2203,309 16,-7 5,-34 -12,-28 -356,123 -710,187 -1087,126 -396,-63 -742,-241 -1097,-419 -8,-4 -14,7 -7,12z"/>
  <path class="fil5" d="M5171 1308c557,201 1337,355 1887,49 11,-6 4,-23 -8,-20 -316,89 -606,160 -938,140 -321,-20 -627,-103 -936,-186 -11,-3 -15,13 -5,17z"/>
  <path class="fil5" d="M5337 1196c68,61 159,62 248,75 138,20 277,37 417,40 242,5 508,-30 712,-172 14,-10 2,-30 -14,-23 -216,103 -425,160 -666,161 -200,1 -514,7 -690,-91 -5,-3 -12,5 -7,10z"/>
  <path class="fil5" d="M5670 1059c195,80 447,43 620,-71 15,-10 2,-31 -13,-23 -205,101 -381,117 -604,84 -7,-1 -9,8 -3,10z"/>
  <path class="fil5" d="M2624 1664c342,730 1461,963 2022,344 8,-8 -2,-23 -12,-16 -331,241 -687,395 -1105,316 -390,-73 -686,-324 -895,-650 -4,-7 -14,-1 -10,6z"/>
  <path class="fil5" d="M2385 1807c112,312 396,530 691,657 204,87 619,262 819,90 10,-9 -3,-23 -14,-18 -261,119 -655,-34 -895,-157 -260,-132 -446,-324 -588,-577 -4,-7 -16,-2 -13,5z"/>
  <path class="fil5" d="M5305 1642c247,403 659,602 1120,649 434,44 975,-43 1319,-330 11,-9 -3,-24 -14,-18 -199,96 -383,200 -599,255 -212,54 -431,74 -649,58 -227,-17 -465,-71 -669,-174 -206,-105 -353,-272 -494,-451 -6,-7 -19,3 -14,11z"/>
  <path class="fil5" d="M6169 2395c607,234 1271,136 1829,-186 13,-7 4,-29 -10,-24 -280,107 -539,244 -839,289 -328,49 -662,11 -976,-92 -8,-3 -12,10 -4,13z"/>
  <path class="fil5" d="M1591 2081c446,628 1387,921 2102,615 13,-5 4,-25 -9,-22 -401,100 -786,140 -1188,11 -358,-116 -642,-338 -893,-613 -6,-6 -17,2 -12,9z"/>
  <path class="fil5" d="M2750 2927c-42,550 -273,1093 -514,1584 -188,382 -506,753 -527,1194 -1,12 19,15 21,3 82,-505 422,-922 629,-1382 189,-421 426,-928 407,-1399 0,-11 -16,-11 -16,0z"/>
  <path class="fil5" d="M2030 2828c-90,326 -57,686 -32,1019 27,366 35,719 15,1085 -1,13 20,16 23,3 75,-331 31,-690 5,-1024 -29,-366 -31,-715 3,-1081 1,-8 -12,-10 -14,-2z"/>
  <path class="fil5" d="M2276 2873c-80,280 -82,579 -81,869 1,316 -10,622 -42,936 -2,15 22,18 25,4 66,-273 55,-564 52,-843 -2,-326 7,-639 63,-961 2,-12 -14,-17 -17,-5z"/>
  <path class="fil5" d="M2281 4463c161,-485 288,-1048 281,-1562 0,-13 -21,-17 -23,-3 -41,261 -55,525 -99,787 -44,261 -108,517 -170,775 -2,7 9,10 11,3z"/>
  <path class="fil5" d="M1970 5380c52,818 -57,1619 -423,2361 -309,626 -867,1182 -646,1935 6,20 34,11 30,-9 -40,-235 -66,-449 -1,-682 52,-187 143,-359 242,-525 187,-314 384,-615 525,-954 275,-661 399,-1417 292,-2129 -2,-10 -19,-8 -19,3z"/>
  <path class="fil5" d="M918 9582c-604,-615 -506,-1471 -78,-2159 342,-550 879,-1078 910,-1763 1,-18 -31,-23 -34,-4 -116,838 -776,1361 -1101,2104 -260,594 -251,1394 292,1834 8,7 19,-4 11,-12z"/>
  <path class="fil5" d="M906 9601c-147,-385 -294,-778 -201,-1197 80,-357 303,-686 479,-1002 316,-568 674,-1191 722,-1854 2,-20 -30,-24 -34,-5 -71,388 -176,750 -343,1109 -158,341 -347,667 -528,996 -155,282 -327,576 -358,903 -35,365 93,732 249,1056 4,8 17,3 14,-6z"/>
  <path class="fil5" d="M919 9609c-126,-383 -150,-788 -4,-1170 136,-358 378,-670 546,-1013 301,-613 506,-1298 523,-1984 1,-27 -38,-26 -40,0 -64,804 -282,1561 -679,2266 -175,310 -383,603 -454,958 -63,318 -34,650 97,948 3,6 13,1 11,-5z"/>
  <path class="fil5" d="M2697 7461c165,-386 313,-780 466,-1171 158,-400 319,-802 419,-1221 89,-379 129,-768 124,-1157 -6,-396 -34,-844 -167,-1220 -5,-14 -31,-14 -28,4 52,397 142,779 150,1183 9,418 -34,838 -136,1244 -201,801 -567,1556 -839,2333 -2,7 9,11 11,5z"/>
  <path class="fil5" d="M2648 7276c560,-1395 1020,-2997 772,-4509 -3,-23 -43,-18 -40,5 100,779 54,1553 -104,2321 -154,746 -412,1456 -643,2179 -3,9 11,12 15,4z"/>
  <path class="fil5" d="M2586 7098c209,-690 401,-1392 498,-2107 96,-709 78,-1426 49,-2139 -1,-28 -45,-28 -44,0 22,723 48,1446 -50,2164 -96,706 -293,1389 -471,2077 -3,12 15,16 18,5z"/>
  <path class="fil5" d="M2495 7022c153,-463 225,-962 273,-1446 47,-476 92,-998 17,-1472 -3,-17 -30,-12 -30,4 -16,480 18,954 -26,1434 -45,501 -153,984 -248,1476 -2,9 11,12 14,4z"/>
  <path class="fil5" d="M2375 6780c162,-635 207,-1361 89,-2006 -4,-25 -43,-14 -38,11 114,670 14,1326 -69,1993 -1,10 15,12 18,2z"/>
  <path class="fil5" d="M1383 8483c29,622 315,1215 686,1705 175,233 374,484 620,645 267,176 600,354 918,411 19,4 28,-24 8,-30 -306,-95 -611,-228 -882,-401 -264,-169 -480,-442 -664,-691 -361,-489 -589,-1037 -669,-1639 -1,-11 -18,-12 -17,0z"/>
  <path class="fil5" d="M1585 8156c116,644 328,1317 660,1883 274,466 682,935 1200,1131 12,4 19,-15 8,-21 -524,-291 -924,-674 -1218,-1201 -316,-566 -447,-1183 -640,-1795 -2,-6 -11,-3 -10,3z"/>
  <path class="fil5" d="M1851 7624c103,983 326,2169 1056,2898 15,15 37,-7 23,-23 -332,-398 -571,-827 -730,-1323 -162,-508 -226,-1033 -332,-1554 -2,-10 -18,-8 -17,2z"/>
  <path class="fil5" d="M2096 7024c291,618 291,1278 343,1945 41,523 126,1104 479,1516 9,10 25,-3 18,-14 -356,-535 -437,-1131 -475,-1760 -34,-572 -53,-1188 -349,-1696 -6,-11 -21,-2 -16,9z"/>
  <path class="fil5" d="M4768 2951c-55,326 -104,647 -184,968 -76,299 -162,595 -237,894 -138,549 -294,1206 -151,1769 3,13 22,10 22,-3 -12,-310 -33,-607 4,-917 39,-326 114,-648 196,-966 147,-565 358,-1153 368,-1743 0,-10 -16,-12 -18,-2z"/>
  <path class="fil5" d="M4389 2827c-68,599 -214,1186 -265,1787 -49,580 -56,1210 77,1781 4,15 30,12 29,-4 -56,-610 -118,-1198 -64,-1812 50,-583 245,-1165 236,-1752 0,-9 -12,-8 -13,0z"/>
  <path class="fil5" d="M3993 2541c-96,630 -99,1284 -68,1919 30,632 87,1292 251,1905 4,14 23,8 21,-6 -95,-645 -207,-1279 -238,-1933 -29,-631 10,-1253 49,-1883 0,-8 -13,-10 -15,-2z"/>
  <path class="fil5" d="M3811 5148c145,290 324,607 352,936 0,7 9,7 9,0 14,-177 -72,-302 -121,-466 -53,-176 -128,-319 -232,-474 -3,-5 -10,-1 -8,4z"/>
  <path class="fil5" d="M5578 5839c131,-555 396,-1070 548,-1620 148,-533 256,-1085 292,-1638 2,-23 -33,-22 -35,0 -64,584 -156,1157 -319,1722 -78,272 -168,539 -271,802 -93,238 -199,476 -224,732 -1,6 8,7 9,2z"/>
  <path class="fil5" d="M5578 5823c55,-469 26,-950 -49,-1414 -79,-489 -274,-947 -353,-1433 -4,-24 -38,-14 -35,9 68,465 260,904 342,1369 85,488 94,975 81,1469 0,9 13,9 14,0z"/>
  <path class="fil5" d="M5597 5768c64,-475 92,-961 100,-1441 8,-453 -2,-926 -104,-1369 -5,-18 -36,-15 -33,4 60,468 106,926 98,1398 -8,471 -62,939 -74,1408 0,9 12,8 13,0z"/>
  <path class="fil5" d="M5586 5684c149,-461 241,-942 305,-1422 33,-245 57,-492 72,-739 14,-232 42,-480 9,-711 -1,-11 -20,-11 -22,0 -30,222 -14,453 -26,678 -14,235 -35,471 -65,705 -63,502 -171,993 -282,1486 -2,6 7,8 9,3z"/>
  <path class="fil5" d="M3590 5867c314,523 346,1072 310,1670 -33,547 -237,1066 -254,1613 -29,947 421,1895 1182,2461 18,13 41,-17 24,-31 -831,-646 -1303,-1723 -1133,-2774 44,-271 126,-534 172,-804 43,-252 55,-511 59,-766 7,-487 -44,-976 -343,-1379 -8,-10 -24,-1 -17,10z"/>
  <path class="fil5" d="M3415 6239c624,1029 -43,2153 -58,3238 -12,915 565,1631 1317,2090 20,13 37,-18 18,-31 -385,-253 -743,-553 -990,-948 -290,-466 -342,-992 -269,-1527 124,-908 599,-1991 -1,-2832 -7,-10 -23,-1 -17,10z"/>
  <path class="fil5" d="M3223 6617c137,257 224,524 220,817 -3,299 -83,597 -148,888 -108,483 -221,979 -166,1477 71,634 397,1192 955,1511 182,104 386,193 593,233 18,3 24,-21 7,-28 -237,-87 -469,-165 -683,-306 -360,-237 -621,-588 -747,-1000 -192,-633 -53,-1279 87,-1907 129,-578 254,-1168 -98,-1697 -8,-12 -28,-1 -20,12z"/>
  <path class="fil5" d="M4620 11515c-414,-116 -856,-221 -1165,-547 -316,-334 -485,-798 -533,-1249 -54,-520 24,-1047 103,-1560 47,-310 201,-774 -52,-1034 -12,-13 -31,6 -19,20 185,228 107,538 66,802 -38,248 -77,496 -106,745 -54,463 -79,946 37,1402 95,368 292,758 591,1002 293,240 702,383 1074,435 10,1 14,-13 4,-16z"/>
  <path class="fil5" d="M8272 2750c-13,243 103,484 206,698 140,290 282,577 392,881 216,595 320,1208 330,1840 1,55 84,55 86,0 18,-601 -99,-1208 -296,-1774 -92,-265 -203,-522 -332,-772 -149,-290 -270,-563 -363,-876 -4,-12 -22,-10 -23,3z"/>
  <path class="fil5" d="M6871 2806c49,765 259,1579 674,2229 181,283 406,539 676,741 273,205 662,424 1012,435 41,1 42,-53 9,-67 -175,-70 -359,-106 -532,-184 -156,-72 -305,-161 -443,-263 -287,-215 -521,-496 -705,-803 -387,-649 -500,-1367 -663,-2092 -4,-15 -29,-12 -28,4z"/>
  <path class="fil5" d="M8045 2882c91,558 425,1047 664,1548 257,539 375,1130 499,1711 4,18 31,10 28,-8 -48,-282 -119,-569 -187,-847 -65,-263 -150,-521 -262,-768 -248,-551 -562,-1053 -731,-1638 -2,-7 -12,-4 -11,2z"/>
  <path class="fil5" d="M7151 2896c52,346 155,689 267,1020 104,306 216,627 390,901 166,262 392,491 610,711 228,229 469,461 734,646 13,10 29,-11 17,-22 -471,-422 -1009,-832 -1344,-1380 -347,-565 -487,-1249 -657,-1880 -3,-12 -19,-7 -17,4z"/>
  <path class="fil5" d="M7448 2929c91,583 275,1181 561,1698 140,252 317,476 496,701 218,272 428,555 660,817 9,10 28,-4 20,-16 -363,-506 -819,-952 -1128,-1495 -305,-535 -435,-1122 -597,-1709 -2,-8 -13,-4 -12,4z"/>
  <path class="fil5" d="M7779 2927c104,548 280,1117 563,1600 312,531 600,1068 855,1629 7,16 33,5 27,-11 -88,-264 -227,-510 -354,-757 -140,-274 -282,-540 -443,-802 -321,-520 -447,-1091 -636,-1663 -3,-7 -13,-4 -12,4z"/>
  <path class="fil5" d="M6545 3509c-17,563 126,1162 302,1693 180,548 436,1068 757,1547 13,18 43,1 31,-18 -320,-488 -577,-1014 -758,-1569 -178,-545 -242,-1090 -319,-1655 -1,-7 -12,-5 -13,2z"/>
  <path class="fil5" d="M6765 2706c-88,1377 348,2813 1048,3987 12,21 44,2 32,-19 -353,-597 -624,-1240 -803,-1911 -181,-677 -241,-1358 -264,-2057 -1,-8 -13,-8 -13,0z"/>
  <path class="fil5" d="M7113 4039c92,626 325,1256 603,1822 9,18 35,2 27,-16 -270,-590 -448,-1186 -617,-1809 -3,-8 -14,-5 -13,3z"/>
  <path class="fil5" d="M8090 5624c-68,356 -43,726 51,1075 100,370 267,718 370,1086 238,846 -29,1665 -338,2451 -7,19 24,32 32,14 305,-689 541,-1476 400,-2234 -70,-378 -233,-728 -357,-1090 -147,-429 -189,-850 -143,-1300 1,-8 -13,-10 -15,-2z"/>
  <path class="fil5" d="M8512 5912c-4,385 103,769 295,1102 222,386 500,701 551,1162 44,401 -56,814 -291,1143 -248,348 -611,590 -879,921 -13,16 9,40 24,24 271,-306 607,-553 854,-879 228,-299 346,-668 342,-1043 -5,-403 -160,-738 -383,-1064 -290,-423 -460,-850 -495,-1366 -1,-11 -18,-12 -18,0z"/>
  <path class="fil5" d="M8262 5760c-13,371 86,740 212,1086 136,375 356,727 463,1111 123,441 -30,902 -208,1306 -158,359 -375,669 -589,996 -7,10 9,23 17,13 258,-282 451,-642 605,-990 154,-346 290,-728 256,-1113 -34,-379 -256,-725 -402,-1069 -183,-434 -303,-868 -339,-1340 -1,-10 -15,-10 -15,0z"/>
  <path class="fil5" d="M4427 5553c-70,756 -10,1548 234,2270 125,368 315,708 450,1071 154,414 215,834 261,1271 1,14 21,14 21,0 7,-378 -75,-768 -192,-1126 -125,-381 -320,-732 -461,-1106 -288,-764 -324,-1573 -299,-2380 0,-9 -14,-9 -14,0z"/>
  <path class="fil5" d="M4880 4352c279,989 476,1996 545,3023 32,465 46,931 1,1396 -39,402 -116,826 -62,1229 2,16 26,17 25,0 -11,-413 35,-819 75,-1229 47,-487 30,-976 -6,-1463 -72,-1003 -253,-2003 -563,-2960 -3,-10 -18,-6 -15,4z"/>
  <path class="fil5" d="M4715 4799c179,827 397,1644 468,2490 65,774 63,1557 152,2329 2,15 24,16 24,0 2,-395 -42,-793 -67,-1187 -26,-402 -39,-806 -78,-1208 -78,-820 -267,-1634 -490,-2427 -1,-6 -11,-3 -9,3z"/>
  <path class="fil5" d="M4583 5149c17,435 69,872 117,1304 44,395 91,794 177,1183 70,316 150,631 223,947 67,285 118,582 207,861 3,12 23,11 22,-3 -31,-276 -121,-553 -184,-823 -73,-313 -149,-625 -221,-938 -194,-833 -203,-1690 -330,-2532 -1,-7 -12,-5 -11,1z"/>
  <path class="fil5" d="M6694 5483c-50,543 -160,1066 -348,1579 -188,515 -441,995 -694,1479 -8,14 14,27 22,13 537,-915 1003,-1997 1037,-3071 0,-11 -16,-11 -17,0z"/>
  <path class="fil5" d="M6539 5104c-40,524 -145,1030 -315,1528 -80,234 -170,465 -266,693 -99,237 -224,469 -304,712 -4,11 12,18 18,8 124,-213 211,-454 307,-681 104,-248 203,-498 288,-754 162,-484 286,-992 287,-1506 0,-10 -14,-9 -15,0z"/>
  <path class="fil5" d="M6447 4777c-64,395 -137,784 -258,1166 -127,405 -322,760 -503,1141 -6,14 12,24 21,12 241,-315 389,-741 507,-1115 123,-388 216,-795 246,-1202 1,-8 -12,-10 -13,-2z"/>
  <path class="fil5" d="M6182 4706c-71,313 -129,625 -221,933 -92,308 -226,597 -331,899 -4,12 14,20 20,9 154,-276 252,-598 342,-900 90,-305 172,-622 203,-939 0,-8 -12,-9 -13,-2z"/>
  <path class="fil5" d="M7843 6866c-363,524 -461,1181 -388,1803 39,342 84,678 64,1023 -22,383 -122,730 -224,1096 -4,14 19,25 25,11 261,-586 277,-1283 198,-1908 -44,-353 -78,-698 -19,-1052 57,-346 190,-660 355,-967 4,-7 -6,-13 -11,-6z"/>
  <path class="fil5" d="M7968 7271c-138,218 -160,479 -168,730 -9,268 -4,537 1,805 6,278 17,558 2,836 -18,343 -110,623 -267,926 -4,10 8,21 15,12 337,-414 300,-1024 292,-1525 -4,-268 -13,-537 -12,-805 1,-335 3,-663 149,-972 4,-8 -7,-14 -12,-7z"/>
  <path class="fil5" d="M8242 8040c-133,339 -71,695 -91,1049 -11,190 -38,378 -82,563 -44,184 -124,361 -160,545 -2,7 8,11 12,5 157,-279 221,-649 252,-965 39,-398 -45,-808 86,-1193 3,-10 -13,-14 -17,-4z"/>
  <path class="fil5" d="M6092 8120c-32,1059 211,2151 467,3172 5,23 40,13 34,-9 -127,-511 -239,-1025 -324,-1545 -88,-538 -120,-1076 -165,-1618 -1,-8 -12,-8 -12,0z"/>
  <path class="fil5" d="M6586 6982c-207,1411 -191,2893 14,4305 3,23 38,13 35,-10 -207,-1422 -172,-2867 -37,-4293 0,-7 -11,-8 -12,-2z"/>
  <path class="fil5" d="M6937 6074c-58,414 -100,831 -130,1247 -32,448 -25,895 -42,1344 -33,870 -157,1733 -136,2605 1,22 35,22 35,0 -19,-860 100,-1713 135,-2571 18,-425 9,-850 35,-1274 27,-451 82,-899 119,-1348 1,-10 -15,-12 -16,-3z"/>
  <path class="fil5" d="M6655 11229c332,-463 598,-1004 737,-1559 4,-17 -22,-24 -27,-7 -179,555 -405,1068 -719,1561 -4,6 5,11 9,5z"/>
  <path class="fil5" d="M7305 7417c27,-199 55,-398 78,-598 2,-20 -32,-25 -35,-5 -29,197 -54,395 -81,593 -3,24 35,35 38,10z"/>
  <path class="fil5" d="M6633 11278c184,-368 253,-796 319,-1199 84,-510 134,-1025 198,-1538 3,-24 -35,-24 -39,0 -65,510 -113,1022 -193,1529 -64,402 -130,827 -293,1203 -3,6 5,11 8,5z"/>
  <path class="fil5" d="M4349 7828c-161,641 -253,1348 -145,2005 110,670 557,1200 710,1854 5,20 35,11 31,-9 -119,-617 -554,-1114 -685,-1731 -151,-714 4,-1407 101,-2115 1,-8 -10,-12 -12,-4z"/>
  <path class="fil5" d="M4520 8253c-138,494 -100,1049 -6,1548 53,278 129,551 221,818 91,264 197,511 250,786 2,12 20,9 20,-3 6,-244 -118,-476 -199,-701 -92,-256 -170,-517 -228,-783 -122,-563 -119,-1096 -45,-1664 1,-7 -11,-8 -13,-1z"/>
  <path class="fil5" d="M4763 8651c-45,378 -26,769 45,1143 80,424 231,812 240,1249 0,15 21,14 23,0 48,-389 -119,-770 -204,-1141 -95,-412 -103,-832 -88,-1251 0,-11 -15,-10 -16,0z"/>
  <path class="fil5" d="M4993 9111c27,247 81,492 116,738 38,267 50,540 96,805 3,12 21,9 21,-2 3,-248 -40,-500 -74,-745 -36,-265 -71,-540 -147,-797 -2,-7 -13,-6 -12,1z"/>
  <path class="fil5" d="M5002 11725c264,-431 440,-928 558,-1417 117,-486 197,-1015 159,-1516 -2,-18 -28,-18 -29,0 -18,511 -43,1006 -164,1507 -120,499 -316,958 -533,1421 -3,6 5,11 9,5z"/>
  <path class="fil5" d="M5870 8712c-30,460 -15,920 -63,1379 -27,251 -68,502 -138,745 -70,242 -181,454 -298,676 -6,10 8,23 16,13 292,-346 387,-867 441,-1302 62,-497 71,-1010 54,-1511 0,-8 -12,-7 -12,0z"/>
  <polygon class="fil5" points="5732,11386 5732,11383 "/>
  <path class="fil5" d="M5800 11379c179,-400 293,-896 290,-1335 0,-12 -19,-15 -21,-3 -34,225 -52,451 -99,675 -47,224 -117,440 -178,660 -1,4 6,7 8,3z"/>
  <path class="fil5" d="M6128 11261c83,-200 148,-487 126,-705 0,-7 -11,-10 -13,-2 -28,115 -30,237 -50,353 -20,118 -51,234 -70,352 0,4 5,6 7,2z"/>
 </g>
</svg>
